<svg width="182" height="38" viewBox="0 0 182 38" fill="none" xmlns="http://www.w3.org/2000/svg">
<path d="M15.5675 33.2221C16.6048 34.6594 17.1234 35.378 17.7649 35.633C18.3265 35.8561 18.9521 35.8561 19.5137 35.633C20.1552 35.378 20.6738 34.6594 21.7111 33.2221L29.6837 22.1749C31.0829 20.2361 31.7825 19.2667 31.7553 18.4578C31.7316 17.7536 31.3955 17.0966 30.8384 16.6653C30.1984 16.1698 29.0029 16.1698 26.6119 16.1698H10.6667C8.27573 16.1698 7.08024 16.1698 6.44025 16.6653C5.88311 17.0966 5.54701 17.7536 5.52331 18.4578C5.49608 19.2667 6.19569 20.2361 7.5949 22.1749L15.5675 33.2221Z" fill="white"/>
<path d="M51.813 32.6323V6.58221H72.4721C73.4611 6.58221 74.3535 6.82341 75.1495 7.30582C75.9696 7.78823 76.6209 8.43949 77.1033 9.25958C77.6098 10.0556 77.8631 10.948 77.8631 11.937V27.2776C77.8631 28.2424 77.6098 29.1349 77.1033 29.955C76.6209 30.775 75.9696 31.4263 75.1495 31.9087C74.3535 32.3911 73.4611 32.6323 72.4721 32.6323H51.813ZM57.3848 26.9881H72.1827V12.2264H57.3848V26.9881ZM87.1971 32.6323C86.2323 32.6323 85.3399 32.3911 84.5198 31.9087C83.6997 31.4263 83.0484 30.775 82.566 29.955C82.0836 29.1349 81.8424 28.2424 81.8424 27.2776V11.937C81.8424 10.948 82.0836 10.0556 82.566 9.25958C83.0484 8.43949 83.6997 7.78823 84.5198 7.30582C85.3399 6.82341 86.2323 6.58221 87.1971 6.58221H102.538C103.503 6.58221 104.383 6.82341 105.179 7.30582C105.999 7.78823 106.65 8.43949 107.133 9.25958C107.639 10.0556 107.893 10.948 107.893 11.937V27.2776C107.893 28.2424 107.639 29.1349 107.133 29.955C106.65 30.775 105.999 31.4263 105.179 31.9087C104.383 32.3911 103.503 32.6323 102.538 32.6323H87.1971ZM87.4504 26.9881H102.212V12.2264H87.4504V26.9881ZM119.324 32.6323L109.845 6.58221H115.815L121.495 22.1037L127.176 6.58221H132.35L138.066 22.1037L143.746 6.58221H149.68L140.201 32.6323H135.895L129.745 15.8807L123.63 32.6323H119.324ZM153.252 32.6323V6.58221H159.04L173.621 23.949V6.58221H179.302V32.6323H173.513L158.86 15.1932V32.6323H153.252Z" fill="white"/>
</svg>
