<svg width="182" height="38" fill="none" xmlns="http://www.w3.org/2000/svg"><path d="M15.568 33.222c1.037 1.437 1.555 2.156 2.197 2.411a2.368 2.368 0 0 0 1.749 0c.641-.255 1.16-.974 2.197-2.41l7.973-11.048c1.399-1.939 2.098-2.908 2.071-3.717a2.368 2.368 0 0 0-.917-1.793c-.64-.495-1.835-.495-4.226-.495H10.667c-2.391 0-3.587 0-4.227.495a2.368 2.368 0 0 0-.917 1.793c-.027.809.673 1.778 2.072 3.717l7.973 11.047ZM51.813 32.632V6.582h20.66c.988 0 1.88.241 2.677.724a5.418 5.418 0 0 1 1.953 1.954c.507.796.76 1.688.76 2.677v15.34a5 5 0 0 1-.76 2.678 5.419 5.419 0 0 1-1.953 1.954c-.797.482-1.689.723-2.678.723H51.813Zm5.572-5.644h14.798V12.226H57.385v14.762Zm29.812 5.644a5.187 5.187 0 0 1-2.677-.723 5.419 5.419 0 0 1-1.954-1.954 5.187 5.187 0 0 1-.724-2.677V11.937c0-.989.242-1.881.724-2.677a5.418 5.418 0 0 1 1.954-1.954 5.187 5.187 0 0 1 2.677-.724h15.341c.965 0 1.845.241 2.641.724a5.424 5.424 0 0 1 1.954 1.954c.506.796.76 1.688.76 2.677v15.34c0 .965-.254 1.858-.76 2.678a5.425 5.425 0 0 1-1.954 1.954 4.997 4.997 0 0 1-2.641.723h-15.34Zm.253-5.644h14.762V12.226H87.45v14.762Zm31.874 5.644-9.479-26.05h5.97l5.68 15.522 5.681-15.522h5.174l5.716 15.522 5.68-15.522h5.934l-9.479 26.05h-4.306l-6.15-16.751-6.115 16.751h-4.306Zm33.928 0V6.582h5.788l14.581 17.367V6.582h5.681v26.05h-5.789L158.86 15.193v17.44h-5.608Z" fill="#fff"/></svg>