<svg width="109" height="38" viewBox="0 0 109 38" fill="none" xmlns="http://www.w3.org/2000/svg">
<path d="M15.0819 13.2115C16.1192 11.7742 16.6378 11.0556 17.2793 10.8006C17.8409 10.5775 18.4665 10.5775 19.0281 10.8006C19.6696 11.0556 20.1882 11.7742 21.2255 13.2115L29.1981 24.2587C30.5973 26.1975 31.2969 27.1669 31.2697 27.9758C31.246 28.6799 30.9099 29.337 30.3528 29.7683C29.7128 30.2637 28.5173 30.2637 26.1263 30.2637H10.1811C7.79013 30.2637 6.59464 30.2637 5.95465 29.7683C5.39751 29.337 5.06141 28.6799 5.03771 27.9758C5.01049 27.1669 5.71009 26.1975 7.1093 24.2587L15.0819 13.2115Z" fill="white"></path>
<path d="M56.5374 32.52C55.5726 32.52 54.6801 32.2788 53.86 31.7964C53.0399 31.314 52.3887 30.6627 51.9063 29.8426C51.4238 29.0226 51.1826 28.1301 51.1826 27.1653V6.4699H56.7907V26.8758H71.5524V6.4699H77.2328V27.1653C77.2328 28.1301 76.9795 29.0226 76.473 29.8426C75.9906 30.6627 75.3393 31.314 74.5192 31.7964C73.7232 32.2788 72.8428 32.52 71.878 32.52H56.5374ZM81.2172 32.52V6.50608H101.876C102.865 6.50608 103.758 6.74729 104.554 7.2297C105.374 7.71211 106.025 8.36336 106.507 9.18346C107.014 10.0036 107.267 10.896 107.267 11.8608V18.5904C107.267 19.5553 107.014 20.4477 106.507 21.2678C106.025 22.0879 105.374 22.7392 104.554 23.2216C103.758 23.704 102.865 23.9452 101.876 23.9452L86.8252 23.9814V32.52H81.2172ZM86.8252 18.301H101.587V12.1141H86.8252V18.301Z" fill="white"></path>
</svg>
