<svg width="109" height="38" fill="none" xmlns="http://www.w3.org/2000/svg"><path d="M15.082 13.211c1.037-1.437 1.556-2.155 2.197-2.41a2.368 2.368 0 0 1 1.75 0c.64.255 1.16.973 2.197 2.41l7.972 11.048c1.4 1.939 2.099 2.908 2.072 3.717a2.368 2.368 0 0 1-.917 1.792c-.64.496-1.836.496-4.227.496H10.181c-2.39 0-3.586 0-4.226-.496a2.368 2.368 0 0 1-.917-1.792c-.028-.81.672-1.778 2.071-3.717l7.973-11.048ZM56.537 32.52a5.187 5.187 0 0 1-2.677-.724 5.418 5.418 0 0 1-1.954-1.953 5.186 5.186 0 0 1-.723-2.678V6.47h5.608v20.406h14.761V6.47h5.68v20.695a5 5 0 0 1-.759 2.678 5.418 5.418 0 0 1-1.954 1.953 4.998 4.998 0 0 1-2.641.724h-15.34Zm24.68 0V6.506h20.659c.989 0 1.882.241 2.678.724a5.414 5.414 0 0 1 1.953 1.953c.507.82.76 1.713.76 2.678v6.73c0 .964-.253 1.857-.76 2.677a5.414 5.414 0 0 1-1.953 1.954c-.796.482-1.689.723-2.678.723l-15.05.036v8.539h-5.609Zm5.608-14.219h14.762v-6.187H86.825v6.187Z" fill="#fff"/></svg>